<?xml version="1.0" encoding="utf-8"?>
<!-- Generator: Adobe Illustrator 16.0.0, SVG Export Plug-In . SVG Version: 6.00 Build 0)  -->
<!DOCTYPE svg PUBLIC "-//W3C//DTD SVG 1.1//EN" "http://www.w3.org/Graphics/SVG/1.1/DTD/svg11.dtd">
<svg version="1.1" xmlns="http://www.w3.org/2000/svg" xmlns:xlink="http://www.w3.org/1999/xlink" x="0px" y="0px" width="800px"
	 height="600px" viewBox="0 0 800 600" enable-background="new 0 0 800 600" xml:space="preserve">
<g id="Layer_2">
	<rect y="0" width="800" height="600"/>
</g>
<g id="Layer_1">
	<g>
		<path fill="#FFFFFF" d="M689.404,250.352H580.91l-23.918-147.929c-2.236-13.964-10.373-26.316-22.203-34.035
			c-11.861-7.729-26.529-10.056-40.205-6.491l-5.895,1.565c-58.017,15.182-119.325,15.182-177.307-0.015l-5.891-1.551
			c-13.701-3.581-28.356-1.202-40.232,6.532c-11.839,7.726-19.936,19.981-22.177,33.933l-23.963,147.989H110.615
			c-8.875,0-16.077,7.196-16.077,16.076c0,44.328,36.061,80.377,80.38,80.377H625.08c44.354,0,80.383-36.049,80.383-80.377
			C705.463,257.548,698.26,250.352,689.404,250.352L689.404,250.352z M274.817,107.491c0.826-5.11,3.666-9.389,8.007-12.214
			c4.344-2.827,9.509-3.62,14.496-2.322l5.88,1.574c63.345,16.609,130.29,16.627,193.583,0.057l5.893-1.532
			c5.021-1.313,10.176-0.47,14.521,2.364c4.35,2.822,7.184,7.017,8.004,12.133l11.947,73.665H262.866L274.817,107.491
			L274.817,107.491z M257.672,213.37h284.656l5.994,36.979H251.688L257.672,213.37L257.672,213.37z M625.082,314.673H174.917
			c-20.965,0-38.834-12.881-45.467-32.174h541.097C663.947,301.792,646.037,314.673,625.082,314.673z"/>
		<path fill="#FFFFFF" d="M573.646,395.052H454.675c-20.978,0-38.331,16.088-40.716,35.363h-27.908
			c-2.391-19.275-19.724-35.363-40.711-35.363H226.375c-22.604,0-41.806,17.947-41.806,40.549v25.995
			c0,45.034,36.869,78.139,86.559,78.139h29.46c49.189,0,85.002-32.153,85.731-77.169h27.381
			c0.746,45.016,36.531,77.169,85.715,77.169h29.48c49.695,0,84.939-33.104,84.939-78.139v-25.995
			c-0.004-22.602-17.572-40.549-40.191-40.549H573.646z M353.384,461.596c0,31.459-26.119,45.985-52.787,45.985h-29.473
			c-26.675,0-54.39-14.526-54.39-45.985v-25.995c0-4.868,4.754-8.398,9.637-8.398h118.965c4.878,0,8.043,3.53,8.043,8.398v25.995
			H353.384z M581.668,461.596c0,31.459-26.111,46.016-52.775,46.016h-29.459c-26.699,0-54.408-14.557-54.408-46.016v-25.995
			c0-4.868,4.775-8.398,9.652-8.398h118.971c4.883,0,8.023,3.53,8.023,8.398v25.995H581.668z"/>
	</g>
</g>
</svg>
