<?xml version="1.0" encoding="utf-8"?>
<!-- Generator: Adobe Illustrator 16.0.0, SVG Export Plug-In . SVG Version: 6.00 Build 0)  -->
<!DOCTYPE svg PUBLIC "-//W3C//DTD SVG 1.1//EN" "http://www.w3.org/Graphics/SVG/1.1/DTD/svg11.dtd">
<svg version="1.1" id="Layer_1" xmlns="http://www.w3.org/2000/svg" xmlns:xlink="http://www.w3.org/1999/xlink" x="0px" y="0px"
	 width="717.708px" height="172.917px" viewBox="0 0 717.708 172.917" enable-background="new 0 0 717.708 172.917"
	 xml:space="preserve">
<g>
	<g>
		<g>
			<g>
				<path fill="#FFFFFF" d="M204.789,69.99h-36.26l-7.994-49.44c-0.747-4.667-3.467-8.795-7.42-11.375
					c-3.965-2.583-8.867-3.361-13.438-2.169l-1.97,0.523c-19.39,5.074-39.88,5.074-59.258-0.005L76.48,7.006
					c-4.579-1.197-9.477-0.402-13.446,2.183c-3.957,2.582-6.663,6.678-7.412,11.341l-8.009,49.46H11.349
					c-2.966,0-5.373,2.405-5.373,5.373c0,14.815,12.052,26.863,26.864,26.863h150.451c14.824,0,26.865-12.048,26.865-26.863
					C210.156,72.395,207.749,69.99,204.789,69.99z M66.228,22.244c0.276-1.708,1.225-3.138,2.676-4.082
					c1.452-0.945,3.178-1.21,4.845-0.776l1.965,0.526c21.171,5.551,43.545,5.557,64.698,0.019l1.97-0.512
					c1.678-0.439,3.401-0.157,4.853,0.79c1.454,0.943,2.401,2.345,2.675,4.055l3.993,24.62H62.234L66.228,22.244z M60.498,57.63
					h95.136l2.004,12.359h-99.14L60.498,57.63z M183.292,91.487H32.84c-7.007,0-12.979-4.305-15.196-10.753h180.843
					C196.281,87.182,190.295,91.487,183.292,91.487z"/>
			</g>
		</g>
		<g>
			<g>
				<path fill="#FFFFFF" d="M166.101,118.351h-39.762c-7.011,0-12.811,5.377-13.608,11.819h-9.327
					c-0.799-6.442-6.592-11.819-13.606-11.819h-39.76c-7.555,0-13.972,5.998-13.972,13.552v8.688
					c0,15.051,12.322,26.115,28.929,26.115h9.846c16.44,0,28.409-10.746,28.653-25.791h9.151
					c0.249,15.045,12.209,25.791,28.647,25.791h9.853c16.609,0,28.388-11.064,28.388-26.115v-8.688
					C179.532,124.349,173.66,118.351,166.101,118.351z M92.486,140.591c0,10.514-8.729,15.369-17.642,15.369h-9.85
					c-8.915,0-18.178-4.855-18.178-15.369v-8.688c0-1.627,1.589-2.807,3.221-2.807h39.76c1.63,0,2.688,1.18,2.688,2.807V140.591
					L92.486,140.591z M168.782,140.591L168.782,140.591c0,10.514-8.727,15.379-17.638,15.379h-9.846
					c-8.923,0-18.184-4.865-18.184-15.379v-8.688c0-1.627,1.596-2.807,3.226-2.807h39.762c1.632,0,2.681,1.18,2.681,2.807V140.591
					L168.782,140.591z"/>
			</g>
		</g>
	</g>
	<g>
		<path fill="#FFFFFF" d="M273.84,68.27h-44.903V10.003h44.903v16.158h-29.132v26.336h29.132V68.27z"/>
		<path fill="#FFFFFF" d="M296.913,47.604V68.27h-16.158V10.003h16.158v20.665h14.219V10.003h16.159V68.27h-16.159V47.604H296.913z"
			/>
		<path fill="#FFFFFF" d="M390.605,68.27h-17.246l-11.965-35.893L350.751,68.27h-17.247L352.07,9.848h19.967L390.605,68.27z"/>
		<path fill="#FFFFFF" d="M435.275,52.033V68.27h-22.217h-16.239V9.926h16.239v42.107H435.275z"/>
		<path fill="#FFFFFF" d="M479.792,52.033V68.27h-22.219h-16.238V9.926h16.238v42.107H479.792z"/>
		<path fill="#FFFFFF" d="M485.929,9.848h49.875v15.848h-32.006v9.322h16.236v10.954h-16.627v6.449h32.396V68.27h-49.875V9.848z"/>
		<path fill="#FFFFFF" d="M590.183,10.003V68.27H573.56l-14.527-25.094V68.27h-17.014V10.003h17.791l13.75,22.684V10.003H590.183z"
			/>
		<path fill="#FFFFFF" d="M654.201,68.27h-57.723V9.848h54.227v15.459H616.91V52.11h16.859v-3.574h-5.594V35.174h26.025V68.27z"/>
		<path fill="#FFFFFF" d="M660.414,9.848h49.877v15.848h-32.008v9.322h16.236v10.954h-16.623v6.449h32.395V68.27h-49.877V9.848z"/>
		<path fill="#FFFFFF" d="M251.51,85.549v24.667h-16.323v5.455h-8.143V85.549H251.51z M243.971,103.557v-11.31h-8.784v11.31H243.971
			z"/>
		<path fill="#FFFFFF" d="M273.808,107.087l5.857,8.584h-11.069l-5.015-6.699v6.699h-8.783V85.589h24.023v21.498H273.808z
			 M270.279,99.386v-5.254h-6.697v5.254H270.279z"/>
		<path fill="#FFFFFF" d="M297.914,115.59h-15.842v-7.701h3.53V93.492h-3.53v-7.942h15.842v7.942h-3.532v14.397h3.532V115.59z"/>
		<path fill="#FFFFFF" d="M321.057,115.671h-10.308l-9.586-30.162h8.903l5.494,18.53l6.177-18.53h8.903L321.057,115.671z"/>
		<path fill="#FFFFFF" d="M366.054,115.671h-8.58l-3.049-7.662h-8.866l-3.047,7.662h-9.064l12.795-30.042h6.977L366.054,115.671z
			 M350.011,96.78l-1.683,3.73h3.049L350.011,96.78z"/>
		<path fill="#FFFFFF" d="M392.083,115.671h-23.181V85.589h23.181v8.344h-15.039v13.596h15.039V115.671z"/>
		<path fill="#FFFFFF" d="M419.438,85.589v30.082h-23.823v-7.1h15.682v-3.57h-15.682V85.589h8.141v11.472h7.541V85.589H419.438z"/>
		<path fill="#FFFFFF" d="M474.787,115.671h-8.584l-3.049-7.662h-8.861l-3.049,7.662h-9.064l12.795-30.042h6.979L474.787,115.671z
			 M458.744,96.78l-1.686,3.73h3.049L458.744,96.78z"/>
		<path fill="#FFFFFF" d="M502.298,85.589v30.082h-8.582l-7.5-12.955v12.955h-8.783V85.589h9.186l7.098,11.712V85.589H502.298z"/>
		<path fill="#FFFFFF" d="M525.601,115.75h-20.055V85.669h20.055l5.855,5.857v18.369L525.601,115.75z M513.892,107.408h9.424V94.011
			h-9.424V107.408z"/>
		<path fill="#FFFFFF" d="M250.107,146.345c0.935,0.937,1.656,1.979,2.164,3.129c0.509,1.15,0.763,2.404,0.763,3.77
			c0,1.363-0.254,2.619-0.763,3.771c-0.508,1.148-1.229,2.191-2.164,3.125c-0.937,0.938-1.979,1.66-3.131,2.168
			c-1.15,0.508-2.406,0.762-3.768,0.762h-15.441v-9.186h15.441h0.2c0.133,0,0.216-0.006,0.24-0.02
			c0.026-0.014,0.092-0.074,0.202-0.182v-0.439c0-0.107-0.007-0.174-0.021-0.201s-0.075-0.094-0.181-0.201
			c-0.134-0.104-0.213-0.166-0.24-0.18c-0.027-0.014-0.094-0.02-0.2-0.02h-6.257c-1.365,0-2.621-0.254-3.771-0.764
			c-1.151-0.508-2.191-1.229-3.127-2.166c-0.938-0.934-1.659-1.977-2.167-3.126c-0.509-1.15-0.763-2.407-0.763-3.771
			c0-1.363,0.254-2.621,0.763-3.77c0.508-1.148,1.229-2.191,2.167-3.13c0.853-0.933,1.876-1.655,3.068-2.166
			c1.189-0.506,2.465-0.76,3.83-0.76h15.04v9.185h-15.04h-0.441c0,0.026-0.014,0.04-0.04,0.04c-0.027,0-0.054,0.014-0.08,0.04
			c-0.027,0.026-0.041,0.053-0.041,0.08s-0.014,0.039-0.04,0.039c-0.054,0.028-0.094,0.066-0.122,0.121
			c-0.054,0.107-0.08,0.214-0.08,0.32c0,0.081,0.026,0.175,0.08,0.281c0.028,0.054,0.068,0.094,0.122,0.121
			c0.106,0.106,0.212,0.167,0.32,0.18c0.106,0.014,0.212,0.02,0.321,0.02h6.257c1.362,0,2.618,0.255,3.768,0.763
			C248.128,144.687,249.171,145.409,250.107,146.345z"/>
		<path fill="#FFFFFF" d="M256.282,132.908h25.75v8.183h-16.525v4.813h8.383v5.654h-8.585v3.328h16.727v8.184h-25.75V132.908z"/>
		<path fill="#FFFFFF" d="M308.622,163.07H285.44v-30.08h23.181v8.341h-15.04v13.599h15.04V163.07z"/>
		<path fill="#FFFFFF" d="M328.074,132.99h8.783v30.08H312.19v-30.08h8.784v21.736h7.1V132.99z"/>
		<path fill="#FFFFFF" d="M359.196,154.486l5.857,8.584h-11.07l-5.014-6.697v6.697h-8.783v-30.08h24.024v21.496H359.196z
			 M355.667,146.787v-5.254h-6.698v5.254H355.667z"/>
		<path fill="#FFFFFF" d="M383.3,162.99h-15.841v-7.701h3.529v-14.399h-3.529v-7.94H383.3v7.94h-3.529v14.399h3.529V162.99z"/>
		<path fill="#FFFFFF" d="M410.574,142.374h-7.299v20.696h-9.427v-20.696h-7.3v-9.384h24.025V142.374z"/>
		<path fill="#FFFFFF" d="M437.685,132.99v30.08h-23.822v-7.1h15.684v-3.57h-15.684v-19.41h8.143v11.472h7.541V132.99H437.685z"/>
		<path fill="#FFFFFF" d="M484.05,146.345c0.934,0.937,1.658,1.979,2.164,3.129c0.508,1.15,0.764,2.404,0.764,3.77
			c0,1.363-0.256,2.619-0.764,3.771c-0.506,1.148-1.23,2.191-2.164,3.125c-0.938,0.938-1.979,1.66-3.129,2.168
			s-2.406,0.762-3.771,0.762H461.71v-9.186h15.439h0.203c0.133,0,0.213-0.006,0.24-0.02s0.094-0.074,0.199-0.182v-0.439
			c0-0.107-0.006-0.174-0.02-0.201s-0.074-0.094-0.18-0.201c-0.133-0.104-0.215-0.166-0.24-0.18c-0.027-0.014-0.094-0.02-0.203-0.02
			h-6.256c-1.361,0-2.621-0.254-3.768-0.764c-1.152-0.508-2.195-1.229-3.131-2.166c-0.936-0.934-1.656-1.977-2.164-3.126
			c-0.508-1.15-0.762-2.407-0.762-3.771c0-1.363,0.254-2.621,0.762-3.77s1.229-2.191,2.164-3.13
			c0.855-0.933,1.879-1.655,3.068-2.166c1.191-0.506,2.469-0.76,3.83-0.76h15.041v9.185h-15.041h-0.439
			c0,0.026-0.016,0.04-0.043,0.04c-0.025,0-0.053,0.014-0.076,0.04c-0.029,0.026-0.041,0.053-0.041,0.08s-0.016,0.039-0.043,0.039
			c-0.053,0.028-0.094,0.066-0.119,0.121c-0.053,0.107-0.08,0.214-0.08,0.32c0,0.081,0.027,0.175,0.08,0.281
			c0.025,0.054,0.066,0.094,0.119,0.121c0.107,0.106,0.217,0.167,0.324,0.18c0.105,0.014,0.213,0.02,0.318,0.02h6.256
			c1.365,0,2.621,0.255,3.771,0.763S483.113,145.409,484.05,146.345z"/>
		<path fill="#FFFFFF" d="M498.97,162.99h-8.742v-30h8.742V162.99z"/>
		<path fill="#FFFFFF" d="M526.242,142.374h-7.297v20.696h-9.426v-20.696h-7.301v-9.384h24.023V142.374z"/>
		<path fill="#FFFFFF" d="M545.455,132.99h8.785v30.08h-24.668v-30.08h8.783v21.736h7.1V132.99z"/>
		<path fill="#FFFFFF" d="M586.964,163.07h-8.902l-6.176-18.529l-5.498,18.529h-8.902l9.588-30.162h10.307L586.964,163.07z"/>
		<path fill="#FFFFFF" d="M614.277,142.374h-7.301v20.696h-9.422v-20.696h-7.301v-9.384h24.023V142.374z"/>
		<path fill="#FFFFFF" d="M626.31,162.99h-8.744v-30h8.744V162.99z"/>
		<path fill="#FFFFFF" d="M629.515,132.99h26.113v30.08h-26.113V132.99z M638.3,141.533v13.193h8.545v-13.193H638.3z"/>
		<path fill="#FFFFFF" d="M683.703,132.99v30.08h-8.586l-7.498-12.955v12.955h-8.783v-30.08h9.184l7.098,11.711V132.99H683.703z"/>
		<path fill="#FFFFFF" d="M710.013,146.345c0.936,0.937,1.658,1.979,2.166,3.129s0.762,2.404,0.762,3.77
			c0,1.363-0.254,2.619-0.762,3.771c-0.508,1.148-1.23,2.191-2.166,3.125c-0.936,0.938-1.979,1.66-3.127,2.168
			c-1.152,0.508-2.41,0.762-3.77,0.762h-15.443v-9.186h15.443h0.199c0.133,0,0.211-0.006,0.238-0.02s0.094-0.074,0.201-0.182v-0.439
			c0-0.107-0.006-0.174-0.018-0.201c-0.014-0.027-0.076-0.094-0.184-0.201c-0.133-0.104-0.215-0.166-0.238-0.18
			c-0.029-0.014-0.096-0.02-0.199-0.02h-6.26c-1.363,0-2.619-0.254-3.77-0.764c-1.152-0.508-2.195-1.229-3.129-2.166
			c-0.936-0.934-1.656-1.977-2.164-3.126c-0.51-1.15-0.764-2.407-0.764-3.771c0-1.363,0.254-2.621,0.764-3.77
			c0.508-1.148,1.229-2.191,2.164-3.13c0.857-0.933,1.877-1.655,3.066-2.166c1.193-0.506,2.469-0.76,3.832-0.76h15.041v9.185
			h-15.041h-0.439c0,0.026-0.014,0.04-0.041,0.04s-0.053,0.014-0.082,0.04c-0.025,0.026-0.041,0.053-0.041,0.08
			s-0.01,0.039-0.039,0.039c-0.051,0.028-0.092,0.066-0.119,0.121c-0.053,0.107-0.08,0.214-0.08,0.32
			c0,0.081,0.027,0.175,0.08,0.281c0.027,0.054,0.068,0.094,0.119,0.121c0.109,0.106,0.215,0.167,0.322,0.18
			c0.107,0.014,0.213,0.02,0.32,0.02h6.26c1.359,0,2.617,0.255,3.77,0.763C708.035,144.687,709.078,145.409,710.013,146.345z"/>
	</g>
</g>
</svg>
