<?xml version="1.0" encoding="UTF-8" standalone="no"?>
<!-- Created with Inkscape (http://www.inkscape.org/) -->

<svg
   xmlns:dc="http://purl.org/dc/elements/1.1/"
   xmlns:cc="http://creativecommons.org/ns#"
   xmlns:rdf="http://www.w3.org/1999/02/22-rdf-syntax-ns#"
   xmlns:svg="http://www.w3.org/2000/svg"
   xmlns="http://www.w3.org/2000/svg"
   xmlns:sodipodi="http://sodipodi.sourceforge.net/DTD/sodipodi-0.dtd"
   xmlns:inkscape="http://www.inkscape.org/namespaces/inkscape"
   width="3000"
   height="3000"
   id="svg2"
   version="1.1"
   inkscape:version="0.48.5 r10040"
   sodipodi:docname="Logo.svg"
   enable-background="new">
  <defs
     id="defs4">
    <clipPath
       id="clipPath3424"
       clipPathUnits="userSpaceOnUse">
      <path
         inkscape:connector-curvature="0"
         id="path3426"
         d="m 0,1500 1500,0 L 1500,0 0,0 0,1500 z" />
    </clipPath>
    <clipPath
       id="clipPath3237"
       clipPathUnits="userSpaceOnUse">
      <path
         id="path3239"
         d="m 0,1500 1500,0 L 1500,0 0,0 0,1500 z" />
    </clipPath>
    <clipPath
       id="clipPath3219"
       clipPathUnits="userSpaceOnUse">
      <path
         id="path3221"
         d="m 0,1500 1500,0 L 1500,0 0,0 0,1500 z" />
    </clipPath>
    <clipPath
       id="clipPath3199"
       clipPathUnits="userSpaceOnUse">
      <path
         id="path3201"
         d="m 0,1500 1500,0 L 1500,0 0,0 0,1500 z" />
    </clipPath>
    <clipPath
       id="clipPath3183"
       clipPathUnits="userSpaceOnUse">
      <path
         id="path3185"
         d="m 0,1500 1500,0 L 1500,0 0,0 0,1500 z" />
    </clipPath>
    <clipPath
       id="clipPath3183-3"
       clipPathUnits="userSpaceOnUse">
      <path
         inkscape:connector-curvature="0"
         id="path3185-6"
         d="m 0,1500 1500,0 L 1500,0 0,0 0,1500 z" />
    </clipPath>
    <clipPath
       id="clipPath3199-7"
       clipPathUnits="userSpaceOnUse">
      <path
         inkscape:connector-curvature="0"
         id="path3201-5"
         d="m 0,1500 1500,0 L 1500,0 0,0 0,1500 z" />
    </clipPath>
    <clipPath
       id="clipPath3219-3"
       clipPathUnits="userSpaceOnUse">
      <path
         inkscape:connector-curvature="0"
         id="path3221-5"
         d="m 0,1500 1500,0 L 1500,0 0,0 0,1500 z" />
    </clipPath>
    <clipPath
       id="clipPath3237-6"
       clipPathUnits="userSpaceOnUse">
      <path
         inkscape:connector-curvature="0"
         id="path3239-2"
         d="m 0,1500 1500,0 L 1500,0 0,0 0,1500 z" />
    </clipPath>
    <clipPath
       id="clipPath3183-9"
       clipPathUnits="userSpaceOnUse">
      <path
         inkscape:connector-curvature="0"
         id="path3185-1"
         d="m 0,1500 1500,0 L 1500,0 0,0 0,1500 z" />
    </clipPath>
    <clipPath
       id="clipPath3199-2"
       clipPathUnits="userSpaceOnUse">
      <path
         inkscape:connector-curvature="0"
         id="path3201-7"
         d="m 0,1500 1500,0 L 1500,0 0,0 0,1500 z" />
    </clipPath>
    <clipPath
       id="clipPath3219-0"
       clipPathUnits="userSpaceOnUse">
      <path
         inkscape:connector-curvature="0"
         id="path3221-9"
         d="m 0,1500 1500,0 L 1500,0 0,0 0,1500 z" />
    </clipPath>
    <clipPath
       id="clipPath3237-3"
       clipPathUnits="userSpaceOnUse">
      <path
         inkscape:connector-curvature="0"
         id="path3239-6"
         d="m 0,1500 1500,0 L 1500,0 0,0 0,1500 z" />
    </clipPath>
    <filter
       inkscape:collect="always"
       id="filter3093">
      <feBlend
         inkscape:collect="always"
         mode="darken"
         in2="BackgroundImage"
         id="feBlend3095" />
    </filter>
  </defs>
  <sodipodi:namedview
     id="base"
     pagecolor="#ffffff"
     bordercolor="#666666"
     borderopacity="1.0"
     inkscape:pageopacity="0.0"
     inkscape:pageshadow="2"
     inkscape:zoom="0.175"
     inkscape:cx="2085.4409"
     inkscape:cy="1531.3624"
     inkscape:document-units="px"
     inkscape:current-layer="layer5"
     showgrid="false"
     inkscape:window-width="1920"
     inkscape:window-height="1014"
     inkscape:window-x="0"
     inkscape:window-y="27"
     inkscape:window-maximized="1" />
  <metadata
     id="metadata7">
    <rdf:RDF>
      <cc:Work
         rdf:about="">
        <dc:format>image/svg+xml</dc:format>
        <dc:type
           rdf:resource="http://purl.org/dc/dcmitype/StillImage" />
        <dc:title></dc:title>
      </cc:Work>
    </rdf:RDF>
  </metadata>
  <g
     inkscape:groupmode="layer"
     id="layer5"
     inkscape:label="Livello"
     style="display:inline;filter:url(#filter3093)">
    <g
       style="opacity:0.5"
       id="g3179"
       transform="matrix(1.25,0,0,-1.25,6131.0713,2594.643)">
      <g
         id="g3181"
         clip-path="url(#clipPath3183-9)">
        <g
           id="g3187"
           transform="translate(1500,1500)">
          <path
             inkscape:connector-curvature="0"
             d="M 0,0 1373.199,-1500"
             style="fill:#2f4059;fill-opacity:1;fill-rule:nonzero;stroke:none"
             id="path3189" />
        </g>
      </g>
    </g>
    <g
       style="opacity:0.5"
       id="g3195"
       transform="matrix(1.25,0,0,-1.25,6131.0713,2594.643)">
      <g
         id="g3197"
         clip-path="url(#clipPath3199-2)">
        <g
           id="g3203"
           transform="translate(2873.1992,0)">
          <path
             inkscape:connector-curvature="0"
             d="M 0,0 -1373.199,0"
             style="fill:#2f4059;fill-opacity:1;fill-rule:nonzero;stroke:none"
             id="path3205" />
        </g>
        <g
           id="g3207"
           transform="translate(1500,1500)">
          <path
             inkscape:connector-curvature="0"
             d="M 0,0 1373.199,-1500"
             style="fill:#2f4059;fill-opacity:1;fill-rule:nonzero;stroke:none"
             id="path3209" />
        </g>
      </g>
    </g>
    <g
       style="opacity:0.5"
       id="g3215"
       transform="matrix(1.25,0,0,-1.25,6131.0713,2594.643)">
      <g
         id="g3217"
         clip-path="url(#clipPath3219-0)">
        <g
           id="g3223"
           transform="translate(2873.1992,0)">
          <path
             inkscape:connector-curvature="0"
             d="M 0,0 -1373.199,0"
             style="fill:#2f4059;fill-opacity:1;fill-rule:nonzero;stroke:none"
             id="path3225" />
        </g>
      </g>
    </g>
    <path
       id="path3229"
       style="opacity:1;fill:#b1363d;fill-opacity:1;fill-rule:nonzero;stroke:none"
       d="M 0,0 0,3000 3000,0 0,0 z"
       inkscape:connector-curvature="0" />
    <path
       inkscape:connector-curvature="0"
       d="m 6131.0713,2594.643 1875,0 -1875,0 z"
       style="opacity:0.5;fill:#b1363d;fill-opacity:1;fill-rule:nonzero;stroke:none"
       id="path3231" />
    <g
       style="opacity:0.5"
       id="g3233"
       transform="matrix(1.25,0,0,-1.25,6131.0713,2594.643)">
      <g
         id="g3235"
         clip-path="url(#clipPath3237-3)">
        <path
           inkscape:connector-curvature="0"
           d="M 0,0 1500,0"
           style="fill:none;stroke:#373535;stroke-width:1;stroke-linecap:butt;stroke-linejoin:miter;stroke-miterlimit:10;stroke-opacity:1;stroke-dasharray:none"
           id="path3241" />
        <g
           id="g3243"
           transform="translate(1500,1500)">
          <path
             inkscape:connector-curvature="0"
             d="M 0,0 0,-1500"
             style="fill:#b1363d;fill-opacity:1;fill-rule:nonzero;stroke:#373535;stroke-width:1;stroke-linecap:butt;stroke-linejoin:miter;stroke-miterlimit:10;stroke-opacity:1;stroke-dasharray:none"
             id="path3245" />
        </g>
        <g
           id="g3247"
           transform="translate(82.2979,797.3589)">
          <path
             inkscape:connector-curvature="0"
             d="m 0,0 -39.316,0 0,134.879 34.068,0 c 1.053,-4.696 2.185,-9.761 3.315,-14.823 0.543,-0.415 1.085,-0.832 1.628,-1.247 2.651,3.205 5.021,6.703 7.998,9.562 11.564,11.113 32.481,14.078 46.544,6.67 6.826,-3.598 11.388,-9.427 15.024,-16.949 2.289,2.173 4.459,4.005 6.363,6.075 9.569,10.392 21.485,15.072 35.487,14.98 15.796,-0.107 29.474,-11.164 32.445,-26.768 0.96,-5.054 1.327,-10.287 1.381,-15.441 0.318,-31.262 0.466,-62.52 0.664,-93.783 0.007,-0.942 -0.112,-1.889 -0.184,-3.101 l -39.492,0 0,5.444 c 0,28.331 0.027,56.661 -0.043,84.991 -0.008,3.046 -0.477,6.105 -0.943,9.123 -1.968,12.847 -14.152,12.992 -20.909,7.672 -7.232,-5.695 -12.098,-12.82 -11.884,-23.163 0.55,-26.041 0.23,-52.099 0.254,-78.152 0.002,-1.908 0,-3.814 0,-5.958 l -38.937,0 c 0,2.149 -0.002,4.05 0,5.956 0.041,27.517 0.124,55.034 0.075,82.552 -0.008,3.874 -0.333,7.803 -1.059,11.605 -1.949,10.222 -13.242,13.865 -21.331,6.864 C 3.937,100.741 -0.498,93.635 -0.233,83.113 0.464,55.621 0,28.096 0,0"
             style="fill:#ffffff;fill-opacity:1;fill-rule:evenodd;stroke:none"
             id="path3249" />
        </g>
        <g
           id="g3251"
           transform="translate(1250.0566,863.4409)">
          <path
             inkscape:connector-curvature="0"
             d="m 0,0 c 0,-7.491 1.002,-15.149 -0.227,-22.433 -1.979,-11.706 15.135,-21.243 24.527,-19.56 9.942,1.78 15.506,8.13 18.133,17.336 4.534,15.895 3.787,32.025 1.422,48.134 -0.927,6.294 -3.076,12.149 -8.17,16.502 C 26.562,47.756 12.247,44.471 4.234,34.858 1.078,31.061 -0.398,27.042 -0.106,21.974 0.309,14.67 0,7.324 0,0 m -39.373,122.743 c 13.103,1.441 25.997,2.861 39.363,4.334 l 0,-71.55 c 4.136,3.563 7.448,7.064 11.353,9.668 23.988,15.997 57.695,7.718 68.972,-23.998 6.499,-18.289 6.911,-36.98 4.907,-55.964 -1.54,-14.646 -6.496,-27.899 -15.942,-39.241 -16.341,-19.603 -48.35,-22.146 -66.296,-4.656 -1.61,1.571 -2.994,3.36 -5.212,5.868 -1.11,-5.21 -1.952,-9.167 -2.877,-13.523 l -17.082,0 -17.186,0 0,189.062 z"
             style="fill:#ffffff;fill-opacity:1;fill-rule:evenodd;stroke:none"
             id="path3253" />
        </g>
        <g
           id="g3255"
           transform="translate(335.5986,861.8984)">
          <path
             inkscape:connector-curvature="0"
             d="m 0,0 c -1.151,9.931 -1.614,17.055 -2.897,24.033 -1.225,6.705 -3.576,13.25 -9.449,17.424 -11.902,8.451 -30.012,5.718 -35.67,-13.017 -3.576,-11.85 -3.471,-24.03 -2.771,-36.133 0.349,-6.008 1.931,-12.085 3.869,-17.823 3.213,-9.516 10.629,-14.325 20.748,-14.48 10.023,-0.145 17.247,4.032 20.403,13.909 C -2.805,-16.819 -1.497,-7.023 0,0 m -25.954,-69.063 c -19.654,0.409 -36.942,5.95 -50.152,21.336 -8.034,9.358 -12.635,20.401 -14.38,32.332 -2.229,15.268 -2.077,30.528 2.525,45.623 7.379,24.208 26.102,40.189 51.061,43.5 15.695,2.084 30.697,0.441 44.712,-6.946 C 24.726,57.87 33.938,42.95 37.754,24.778 41.179,8.459 40.65,-7.886 36.06,-24.141 29.613,-46.97 9.943,-64.615 -13.438,-67.701 c -4.161,-0.544 -8.343,-0.916 -12.516,-1.362"
             style="fill:#ffffff;fill-opacity:1;fill-rule:evenodd;stroke:none"
             id="path3257" />
        </g>
        <g
           id="g3259"
           transform="translate(1070.6875,932.3486)">
          <path
             inkscape:connector-curvature="0"
             d="m 0,0 39.67,0 c 0,-1.759 0.017,-3.477 0,-5.197 -0.205,-26.378 -0.453,-52.759 -0.593,-79.142 -0.02,-4.858 0.233,-9.737 0.668,-14.582 0.786,-8.787 8.73,-13.501 17.902,-10.787 7.761,2.294 12.957,7.688 16.857,14.431 0.807,1.403 0.711,3.441 0.721,5.183 0.033,28.177 0.022,56.348 0.027,84.523 0,1.758 -0.005,3.513 -0.005,5.528 l 39.281,0 0,-134.812 -34.042,0 c -0.587,5.245 -1.178,10.571 -1.803,16.156 -4.901,-4.394 -9.032,-9.018 -14.014,-12.392 -13.129,-8.887 -27.681,-10.588 -42.588,-5.665 -13.103,4.319 -18.693,15.12 -21.024,27.86 -0.777,4.28 -1.002,8.704 -1.013,13.064 C -0.037,-64.083 0,-32.329 0,0"
             style="fill:#ffffff;fill-opacity:1;fill-rule:evenodd;stroke:none"
             id="path3261" />
        </g>
        <g
           id="g3263"
           transform="translate(771.6318,859.623)">
          <path
             inkscape:connector-curvature="0"
             d="m 0,0 c -9.269,-1.039 -17.862,-1.328 -26.118,-3.13 -7.954,-1.736 -12.294,-9.133 -12.352,-18.173 -0.048,-7.951 4.091,-14.614 11.057,-16.493 6.818,-1.839 13.652,-1.101 19.189,3.625 3.183,2.711 7.27,6.126 7.858,9.729 C 0.855,-17.018 0,-9.252 0,0 m 47.693,-40.283 c -2.434,-7.745 -4.852,-15.053 -7.002,-22.439 -0.898,-3.108 -3.111,-3.027 -5.337,-2.634 -11.028,1.934 -20.905,5.779 -26.36,16.618 -0.356,0.718 -0.927,1.327 -0.949,1.362 -5.999,-4.785 -11.099,-10.247 -17.335,-13.553 -17.567,-9.305 -43.881,-7.787 -58.148,8.222 -15.098,16.939 -14.278,52.53 12.316,65.202 12.407,5.907 25.45,8.072 39.038,7.781 1.952,-0.042 3.906,-0.037 5.856,0.016 12.027,0.329 10.244,-2.429 10.162,10.739 -0.053,10.155 -6.688,16.095 -16.681,16.997 -12.983,1.176 -25.328,-1.614 -37.509,-5.257 -4,-1.192 -5.056,-0.062 -6.08,3.291 -2.112,6.92 -4.507,13.751 -7.066,21.472 9.593,2.475 18.94,5.536 28.526,7.168 8.892,1.517 18.064,2.203 27.076,1.985 10.631,-0.256 21.16,-1.915 30.703,-7.488 11.207,-6.539 17.955,-16.4 18.617,-28.953 1.147,-21.728 0.911,-43.529 1.197,-65.303 0.08,-6.602 1.98,-12.109 8.976,-15.226"
             style="fill:#ffffff;fill-opacity:1;fill-rule:evenodd;stroke:none"
             id="path3265" />
        </g>
        <g
           id="g3267"
           transform="translate(352.3018,674.9023)">
          <path
             inkscape:connector-curvature="0"
             d="m 0,0 c -4.792,-1.126 -9.967,-1.447 -14.295,-3.532 -10.523,-5.074 -16.469,-16.982 -14.371,-31.215 3.212,-21.789 11.917,-29.027 33.226,-28.015 7.636,0.366 14.379,3.425 19.013,10.022 7.973,11.357 7.626,23.889 3.652,36.121 C 23.126,-4.018 12.697,-0.193 0,0 m -30.411,-70.27 c -5.383,5.074 -11.224,9.189 -15.257,14.644 -11.258,15.214 -8.773,40.815 4.48,54.7 9.592,10.038 21.257,15.532 35.114,16.308 6.645,0.367 13.303,0.841 19.953,0.873 15.578,0.068 30.358,3.445 44.429,10.069 1.148,0.55 2.309,1.084 4.041,1.897 2.307,-6.969 4.55,-13.738 7.023,-21.198 C 62.707,5.961 56.446,4.573 50.115,4.082 43.686,3.587 37.188,3.976 30.718,3.976 30.685,3.501 30.65,3.026 30.615,2.554 c 3.909,-2.908 8,-5.607 11.691,-8.779 15.594,-13.389 13.359,-39.379 1.88,-53.381 -12.677,-15.462 -29.488,-19.98 -48.701,-17.718 -1.608,0.182 -3.247,0.173 -4.869,0.268 -2.747,0.162 -6.788,1.546 -7.983,0.271 -2.812,-3.016 -5.066,-7.095 -6.081,-11.116 -1.462,-5.817 4.87,-11.768 12.239,-12.055 11.705,-0.461 23.438,-0.364 35.124,-1.097 16.159,-1.002 32.159,-10.275 37.532,-25.468 5.684,-16.081 -0.824,-34.321 -15.546,-42.853 -10.859,-6.302 -22.714,-9.273 -35.084,-9.273 -12.416,0.004 -24.937,0.284 -37.221,1.895 -20.26,2.66 -32.86,14.525 -32.284,38.496 l 10.082,0 9.589,0 c 2.992,-16.292 8.119,-20.606 24.442,-22.431 13.499,-1.513 26.901,-1.718 39.936,2.234 14.036,4.276 19.307,18.662 11.231,29.955 -4.02,5.623 -10.267,7.896 -16.863,8.261 -11.843,0.659 -23.724,0.561 -35.573,1.132 -8.763,0.419 -16.947,2.897 -22.875,9.888 -9.44,11.153 -7.396,24.686 4.045,35.221 1.503,1.391 3.078,2.692 4.263,3.726"
             style="fill:#ffffff;fill-opacity:1;fill-rule:evenodd;stroke:none"
             id="path3269" />
        </g>
        <g
           id="g3271"
           transform="translate(1451.8086,920.3394)">
          <path
             inkscape:connector-curvature="0"
             d="m 0,0 c -4.771,-7.469 -9.429,-14.765 -14.212,-22.245 -10.841,6.75 -22.216,11.331 -35.141,10.396 -2.713,-0.196 -5.933,-0.08 -7.97,-1.483 -2.817,-1.939 -5.677,-4.85 -6.79,-7.965 -1.256,-3.496 0.187,-7.766 3.902,-9.505 6.964,-3.264 14.106,-6.259 21.404,-8.652 11.397,-3.743 22.716,-7.373 32.131,-15.263 6.278,-5.251 9.832,-11.958 11.151,-19.829 4.811,-28.519 -14.663,-45.096 -38.343,-50.287 -25.523,-5.601 -49.779,-2.106 -71.611,13.299 -0.667,0.468 -1.364,0.883 -1.994,1.392 -0.996,0.821 -1.938,1.7 -3.156,2.771 6.524,7.209 12.813,14.167 19.227,21.254 8.397,-6.457 17.201,-11.253 27.346,-12.335 6.023,-0.641 12.301,-0.466 18.279,0.49 6.43,1.036 10.603,5.778 10.47,11.104 -0.151,5.879 -1.722,10.608 -8.617,13.319 -8.692,3.406 -17.719,5.921 -26.539,8.978 -11.881,4.112 -22.883,9.836 -28.963,21.449 -10.342,19.753 -3.705,43.279 20.939,53.559 12.956,5.403 26.334,6.692 40.327,4.882 C -24.176,13.52 -11.746,8.557 0,0"
             style="fill:#ffffff;fill-opacity:1;fill-rule:evenodd;stroke:none"
             id="path3273" />
        </g>
        <g
           id="g3275"
           transform="translate(426.2129,826.8877)">
          <path
             inkscape:connector-curvature="0"
             d="m 0,0 62.41,0 c -0.942,-9.231 -1.871,-18.034 -2.735,-26.841 -0.338,-3.431 -2.825,-2.925 -5.066,-2.925 -20.022,-0.005 -40.048,0 -60.072,0 l -40.015,0 c 0,9.527 -0.589,18.779 0.316,27.886 0.331,3.322 4.111,6.382 6.515,9.402 16.426,20.671 32.907,41.297 49.364,61.94 1.446,1.817 2.873,3.648 4.955,6.296 l -55.946,0 0,29.665 101.742,0 c 0,-8.815 0.633,-17.467 -0.302,-25.947 C 60.778,75.941 57.294,72.58 54.813,69.462 37.677,47.925 20.428,26.48 3.242,4.98 2.26,3.75 1.512,2.337 0,0"
             style="fill:#ffffff;fill-opacity:1;fill-rule:evenodd;stroke:none"
             id="path3277" />
        </g>
        <g
           id="g3279"
           transform="translate(975.8594,832.9307)">
          <path
             inkscape:connector-curvature="0"
             d="m 0,0 c 5.289,-7.443 11.127,-15.659 17.052,-24.001 -9.242,-7.537 -19.588,-12.454 -30.94,-14.544 -15.915,-2.93 -31.554,-1.421 -46.267,5.87 -17.96,8.899 -28.113,24.054 -32.351,43.007 -4.14,18.509 -3.14,36.987 4.518,54.668 9.263,21.391 25.377,34.082 48.524,37.623 20.905,3.196 39.681,-1.684 56.602,-15.252 C 11.493,79.597 5.85,71.817 0.021,63.777 c -7.232,5.768 -15.25,9.71 -24.648,9.839 C -37.676,73.793 -46.476,67.525 -50.17,54.939 -54.587,39.892 -54.629,24.558 -50.687,9.47 -46.918,-4.953 -32.775,-12.415 -18.315,-7.88 -12.122,-5.939 -6.311,-2.763 0,0"
             style="fill:#ffffff;fill-opacity:1;fill-rule:evenodd;stroke:none"
             id="path3281" />
        </g>
        <g
           id="g3283"
           transform="translate(1002.2812,986.1494)">
          <path
             inkscape:connector-curvature="0"
             d="m 0,0 c 13.313,1.474 26.206,2.896 39.691,4.384 l 0,-6.448 c 0,-49.801 -0.005,-99.589 0,-149.387 0,-9.475 3.534,-12.178 13.405,-9.597 2.57,-9.133 5.137,-18.281 7.749,-27.587 -11.934,-4.114 -23.636,-5.881 -35.62,-3.258 -13.491,2.962 -22.258,12.603 -24.202,26.314 -0.635,4.478 -0.975,9.037 -0.98,13.558 C -0.026,-103.366 0,-54.708 0,-6.053 L 0,0 z"
             style="fill:#ffffff;fill-opacity:1;fill-rule:evenodd;stroke:none"
             id="path3285" />
        </g>
        <g
           id="g3287"
           transform="translate(618.7793,824.981)">
          <path
             inkscape:connector-curvature="0"
             d="m 0,0 c 2.557,-9.024 5.119,-18.077 7.799,-27.525 -14.449,-4.368 -28.791,-7.233 -43.273,-0.421 -10.894,5.124 -16.03,14.391 -16.756,25.829 -0.875,13.777 -1.014,27.611 -1.061,41.423 -0.129,38.595 -0.044,77.187 -0.044,115.779 l 0,6.049 c 13.314,1.478 26.212,2.908 39.691,4.403 l 0,-6.443 0,-148.509 C -13.644,0.339 -10.302,-2.402 0,0"
             style="fill:#ffffff;fill-opacity:1;fill-rule:evenodd;stroke:none"
             id="path3289" />
        </g>
        <g
           id="g3291"
           transform="translate(686.9346,824.9243)">
          <path
             inkscape:connector-curvature="0"
             d="m 0,0 c 2.36,-8.301 4.803,-16.602 6.992,-24.97 0.226,-0.873 -0.835,-2.855 -1.672,-3.123 -13.508,-4.213 -27.114,-6.103 -40.58,0.043 -10.617,4.841 -15.375,13.972 -16.743,24.946 -0.865,6.906 -1.023,13.934 -1.034,20.908 -0.087,45.761 -0.046,91.528 -0.046,137.287 l 0,6.011 c 13.312,1.448 26.229,2.852 39.69,4.316 l 0,-6.268 c 0,-49.668 -0.002,-99.341 0.003,-149.015 C -13.39,0.436 -9.698,-2.456 0,0"
             style="fill:#ffffff;fill-opacity:1;fill-rule:evenodd;stroke:none"
             id="path3293" />
        </g>
        <g
           id="g3295"
           transform="translate(619.1914,602.2744)">
          <path
             inkscape:connector-curvature="0"
             d="m 0,0 c 0,3.747 -0.248,7.513 0.065,11.233 0.37,4.32 -0.839,6.237 -5.59,5.833 -7.431,-0.635 -14.926,-0.534 -22.369,-1.093 -17.941,-1.368 -31.034,-10.491 -29.063,-31.937 0.695,-7.517 3.219,-14.255 10.73,-18.331 C -27.15,-44.667 3.714,-26.858 0.043,-5.85 -0.284,-3.954 0,-1.95 0,0 m 0.464,32.447 c -0.558,7.05 -0.32,13.959 -1.793,20.488 -2.548,11.271 -10.4,15.891 -23.051,16.79 -14.239,1.012 -27.837,-2.255 -41.642,-7.06 -1.943,5.611 -3.8,10.986 -5.798,16.76 12.696,4.071 24.94,7.534 37.838,8.605 9.769,0.821 19.353,0.582 28.821,-2.013 15.059,-4.143 26.595,-17.358 27.129,-32.948 0.84,-24.516 0.788,-49.062 1.109,-73.6 0.095,-7.171 1.75,-13.409 9.05,-16.811 0.916,-0.433 1.76,-2.689 1.455,-3.771 -1.187,-4.266 -2.844,-8.403 -4.313,-12.55 -12.476,0.603 -17.005,3.9 -26.98,19.659 -7.19,-9.432 -16.032,-16.577 -27.81,-18.812 -17.473,-3.333 -33.918,-1.873 -46.722,12.478 -7.912,8.865 -10.067,19.532 -9.269,31.086 0.673,9.693 3.894,18.176 10.824,25.181 8.584,8.677 19.331,12.959 31.054,14.208 12.887,1.368 25.899,1.551 40.098,2.31"
             style="fill:#ffffff;fill-opacity:1;fill-rule:evenodd;stroke:none"
             id="path3297" />
        </g>
        <g
           id="g3299"
           transform="translate(253.6836,619.707)">
          <path
             inkscape:connector-curvature="0"
             d="m 0,0 c -10.874,-0.544 -21.189,-0.199 -31.207,-1.773 -14.624,-2.293 -23.332,-8.498 -25.513,-23.485 -1.559,-10.696 1.669,-23.54 13.405,-27.719 12.356,-4.416 29.409,0.258 37.202,10.782 2.359,3.187 5.557,6.72 5.836,10.296 C 0.517,-21.73 0,-11.449 0,0 m 3.678,-52.805 c -7.521,-5.252 -14.015,-11.547 -21.786,-14.832 -15.782,-6.662 -31.951,-6.225 -46.753,3.457 -10.404,6.814 -15.665,16.867 -16.261,29.367 -0.466,9.877 0.371,19.395 6.118,27.915 7.26,10.759 17.95,16.608 30.148,18.504 12.912,2.014 26.133,2.051 39.217,2.94 1.621,0.107 3.242,0.162 5.463,0.264 0.176,8.11 1.237,16.172 -1.877,23.912 -3.979,9.882 -12.41,12.908 -22.09,13.582 -14.258,0.984 -27.859,-2.284 -41.67,-7.05 -1.905,5.536 -3.751,10.891 -5.895,17.115 8.932,2.284 17.476,4.934 26.206,6.613 13.397,2.569 26.908,3.458 40.313,-0.371 16.086,-4.593 24.961,-15.581 27.192,-31.786 1.055,-7.674 0.976,-15.531 1.044,-23.303 0.143,-16.608 0.049,-33.228 0.043,-49.837 -0.005,-8.649 2.126,-16.092 11.522,-19.484 -1.771,-5.344 -3.476,-10.492 -5.162,-15.566 -12.868,1.034 -21.693,7.185 -25.772,18.56"
             style="fill:#ffffff;fill-opacity:1;fill-rule:evenodd;stroke:none"
             id="path3301" />
        </g>
        <g
           id="g3303"
           transform="translate(157.8486,582.8008)">
          <path
             inkscape:connector-curvature="0"
             d="M 0,0 C 4.033,-5.112 7.825,-9.921 11.808,-14.973 0.625,-25.797 -12.5,-31.785 -27.69,-33.989 c -15.211,-2.212 -29.749,-0.2 -43.428,6.415 -21.214,10.243 -32.085,28.629 -38.278,50.483 -4.311,15.203 -4.78,30.784 -3.726,46.272 1.704,25.022 9.131,47.974 28.946,65.025 16.038,13.798 34.802,17.772 55.638,15.504 14.598,-1.583 26.653,-7.819 38.25,-16.603 -4.407,-5.235 -8.66,-10.292 -12.974,-15.403 -9.68,8.37 -20.782,13.152 -33.174,13.411 -22.793,0.462 -40.005,-12.139 -46.92,-35.178 -5.29,-17.616 -5.852,-35.599 -4.072,-53.824 1.338,-13.674 4.112,-26.712 12.122,-38.193 10.122,-14.519 28.756,-21.38 46.16,-18.108 C -18.058,-12.097 -9.334,-6.001 0,0"
             style="fill:#ffffff;fill-opacity:1;fill-rule:evenodd;stroke:none"
             id="path3305" />
        </g>
        <g
           id="g3307"
           transform="translate(541.3984,797.1216)">
          <path
             inkscape:connector-curvature="0"
             d="m 0,0 -32.372,0 -6.035,0 0,135.211 38.407,0 L 0,0 z"
             style="fill:#ffffff;fill-opacity:1;fill-rule:evenodd;stroke:none"
             id="path3309" />
        </g>
        <g
           id="g3311"
           transform="translate(477.0391,552.5557)">
          <path
             inkscape:connector-curvature="0"
             d="M 0,0 C -9.379,-4.175 -18.76,-6.178 -28.497,-3.394 -40.544,0.063 -46.23,8.68 -46.308,20.799 c -0.338,55.34 -0.126,110.681 -0.207,166.023 -0.005,3.415 1.229,4.46 4.502,4.669 6.054,0.383 12.079,1.234 18.635,1.946 l 0,-6.237 c 0,-53.721 0.129,-107.43 -0.102,-161.144 -0.055,-12.184 6.058,-12.474 14.173,-11.138 3.124,0.506 3.897,-0.065 4.735,-2.715 C -3.288,8.12 -1.583,4.163 0,0"
             style="fill:#ffffff;fill-opacity:1;fill-rule:evenodd;stroke:none"
             id="path3313" />
        </g>
        <g
           id="g3315"
           transform="translate(677.124,687.79)">
          <path
             inkscape:connector-curvature="0"
             d="m 0,0 19.434,0 c 0.864,-8.929 1.699,-17.579 2.582,-26.738 3.746,6.095 6.683,12.197 10.816,17.336 7.47,9.289 17.584,13.23 29.559,12.09 0.32,-0.033 0.643,-0.108 0.963,-0.146 9,-1.115 8.994,-1.115 7.254,-9.828 -0.659,-3.302 -1.304,-6.61 -1.898,-9.926 -0.428,-2.396 -1.399,-3.899 -4.214,-3.301 -19.85,4.233 -30.328,-5.644 -36.693,-21.117 -3.593,-8.73 -5.314,-17.751 -5.124,-27.353 0.408,-20.674 0.125,-41.371 0.125,-62.051 l 0,-5.596 L 0,-136.63 0,0 z"
             style="fill:#ffffff;fill-opacity:1;fill-rule:evenodd;stroke:none"
             id="path3317" />
        </g>
        <path
           inkscape:connector-curvature="0"
           d="m 514.958,551.09 -22.444,0 0,136.835 22.444,0 0,-136.835 z"
           style="fill:#ffffff;fill-opacity:1;fill-rule:evenodd;stroke:none"
           id="path3319" />
        <g
           id="g3321"
           transform="translate(762.1426,688.043)">
          <path
             inkscape:connector-curvature="0"
             d="m 0,0 c 1.217,0.082 2.165,0.194 3.101,0.194 6.334,0.017 12.668,0.011 19.35,0.011 l 0,-137.088 -22.451,0 L 0,0 z"
             style="fill:#ffffff;fill-opacity:1;fill-rule:evenodd;stroke:none"
             id="path3323" />
        </g>
        <g
           id="g3325"
           transform="translate(498.9873,981.4209)">
          <path
             inkscape:connector-curvature="0"
             d="M 0,0 C -0.479,12.718 9.037,22.218 22.803,22.323 36.757,22.426 46.388,13.244 46.499,-0.344 46.591,-11.443 38.639,-22.664 22.892,-22.632 6.657,-22.597 -0.721,-10.913 0,0"
             style="fill:#ffffff;fill-opacity:1;fill-rule:evenodd;stroke:none"
             id="path3327" />
        </g>
        <g
           id="g3329"
           transform="translate(520.1123,738)">
          <path
             inkscape:connector-curvature="0"
             d="m 0,0 c -0.078,-10.276 -6.854,-15.909 -16.437,-15.76 -10.652,0.168 -15.677,6.432 -16.226,15.717 -0.515,8.788 7.047,15.731 16.145,15.79 C -6.82,15.801 -0.009,9.305 0,0"
             style="fill:#ffffff;fill-opacity:1;fill-rule:evenodd;stroke:none"
             id="path3331" />
        </g>
        <g
           id="g3333"
           transform="translate(773.3877,753.7466)">
          <path
             inkscape:connector-curvature="0"
             d="M 0,0 C 9.439,-0.021 16.909,-7.072 16.366,-16.103 15.827,-25.026 10.254,-31.204 -0.136,-31.641 -9.199,-32.022 -16.329,-24.859 -16.4,-16.016 -16.473,-6.721 -9.576,0.011 0,0"
             style="fill:#ffffff;fill-opacity:1;fill-rule:evenodd;stroke:none"
             id="path3335" />
        </g>
      </g>
    </g>
    <g
       style="opacity:1;display:inline;stroke-width:0.19385764999999999"
       id="g3191"
       transform="matrix(2,0,0,-2,3000,0)">
      <path
         inkscape:connector-curvature="0"
         d="M 0,0 -1500,-1500 0,-1500 0,0 z"
         style="fill:#2f4059;fill-opacity:1;fill-rule:nonzero;stroke:none;stroke-width:0.19385764999999999"
         id="path3193" />
    </g>
  </g>
  <g
     inkscape:groupmode="layer"
     id="layer2"
     inkscape:label="Background" />
  <g
     inkscape:label="Wordmark"
     inkscape:groupmode="layer"
     id="layer1"
     transform="translate(0,1947.6378)">
    <rect
       style="fill:#ffffff;display:inline"
       id="rect5570"
       width="1312.1555"
       height="391.03973"
       x="201.28745"
       y="-166.46815" />
    <g
       transform="matrix(2.058196,0,0,-2.058196,178.72937,-815.55305)"
       id="g3428"
       style="fill:#ffffff">
      <path
         id="path3430"
         style="fill:#ffffff;fill-opacity:1;fill-rule:nonzero;stroke:none"
         d="m 0,0 c 0,8.991 -0.009,17.566 0.038,26.14 0.001,0.3 0.559,0.596 0.857,0.895 -0.44,0.618 -0.88,1.235 -1.57,2.202 0.774,0.78 1.378,1.955 2.186,2.116 8.697,1.732 16.994,4.699 25.397,7.434 3.466,1.128 7.125,2.35 10.138,3.009 3.359,-3.353 6.306,-6.295 8.83,-8.813 l 27.293,0 c 0,7.251 0.025,14.557 -0.02,21.862 -0.01,1.568 -1.112,2.865 -3.387,4.825 -0.357,0.307 -0.311,1.081 -0.517,1.901 1.332,0.211 2.493,0.394 3.863,0.61 l 0,8.558 c 7.326,0 14.443,-0.136 21.55,0.068 2.78,0.08 5.568,-0.69 8.436,1.036 2.073,1.248 5.15,-0.673 7.712,1.29 1.051,0.806 3.239,0.134 5.356,0.134 l 0,-6.198 6.184,0 0,4.766 10.205,0 0,7.351 c 3.136,0.393 6.086,0.763 9.564,1.199 2.343,-1.83 5.812,-0.287 9.121,-0.992 0.463,-0.462 1.06,-1.058 1.681,-1.678 l 0,-15.306 c 0.509,-0.165 1.066,-0.304 1.585,-0.531 0.352,-0.154 0.65,-0.433 1.28,-0.868 -0.804,-1.134 -1.605,-2.263 -2.707,-3.817 l 0,-11.507 39.226,0 c 2.249,-1.183 3.183,-1.674 4.279,-2.251 -0.814,-1.139 -1.271,-1.778 -1.742,-2.438 0.327,-0.367 0.724,-0.813 1.102,-1.239 -0.386,-0.44 -0.771,-0.878 -1.565,-1.782 6.523,-0.288 10.042,5.12 15.223,6.527 1.217,5.532 1.217,5.532 12.567,13.878 0.525,3.364 1.016,6.506 1.514,9.696 l 4.483,0 c 1.005,-1.487 1.896,-2.805 3.209,-4.748 l 0,-4.521 c 0.522,-0.521 0.771,-0.911 1.127,-1.102 2.238,-1.201 4.499,-2.358 6.789,-3.548 3.551,5.799 7.032,11.482 11.101,18.126 l 0,11.83 c 4.947,1.411 9.725,2.323 14.523,1.701 0.749,0.747 1.346,1.343 2.166,2.162 l 0,8.925 c 3.097,1.743 4.09,-1.412 6.195,-2.388 0.647,0.484 1.278,0.956 1.975,1.478 3.717,0.302 7.703,-0.842 11.8,1.737 l 0,-10.409 7.755,0 c -0.237,1.519 -0.461,2.961 -0.747,4.796 1.743,2.022 1.214,5.393 0.45,7.773 -0.89,2.778 1.424,4.749 -0.054,7.322 l 23.043,0 c 1.488,-1.418 3.291,-3.137 5.024,-4.789 -1.844,-3.195 -1.767,-6.517 -0.951,-9.148 0.923,-2.977 -1.919,-5.673 0.923,-8.913 5.578,0.424 11.901,0.904 18.647,1.417 1.445,1.75 3.036,3.677 4.28,5.184 l 2.181,0 c 1.993,-1.989 3.753,-3.747 5.044,-5.036 l 8.631,0 c 1.55,1.609 3.156,3.276 4.724,4.903 l 19.787,0 0,-5.911 6.407,0 0,6.641 c 0.82,0.778 1.39,1.805 2.04,1.857 3.826,0.308 7.094,2.316 10.687,3.311 2.069,0.574 3.563,0.589 5.678,-0.473 4.757,-2.391 9.639,-5.008 15.8,-3.849 l 0,-11.436 9.981,0 0,9.162 c 0.821,0.818 1.417,1.414 2.238,2.233 l 14.375,0 0,13.537 19.913,0 c 0.349,-0.358 0.936,-0.961 1.764,-1.812 l 0,-6.654 18.411,0 c 2.374,2.37 4.761,4.753 7.296,7.283 l 15.734,0 0,-14.791 c 2.221,-0.081 4.24,-0.185 6.26,-0.221 2.08,-0.037 4.16,-0.008 6.644,-0.008 0,3.318 0.179,6.44 -0.052,9.532 -0.222,2.977 1.111,6.177 -1.078,8.932 0.726,0.724 1.472,1.469 2.446,2.441 -0.824,4.427 0.667,8.578 3.41,12.15 2.612,3.404 5.981,6.069 10.308,7.064 l 0,9.026 c 1.378,2.665 2.364,4.572 3.285,6.354 0.677,0.157 1.249,0.289 1.794,0.415 l 0,6.891 c -0.879,0.312 -1.613,0.573 -2.256,0.801 -0.647,2.033 0.807,1.887 1.907,2.399 0.609,0.283 0.759,1.547 1.518,3.295 0.979,-1.668 1.373,-2.691 2.074,-3.422 0.537,-0.56 1.46,-0.752 3.265,-1.606 -1.95,-0.803 -2.78,-1.144 -3.719,-1.531 l 0,-6.303 c 4.863,-5.318 4.863,-5.318 5.046,-15.818 5.855,-2.907 11.59,-6.315 13.777,-13.324 l 0,-5.04 c 0.872,-0.911 1.733,-1.81 2.593,-2.709 -2.185,-4.075 -1.075,-8.483 -1.233,-12.749 -0.154,-4.192 -0.033,-8.395 -0.033,-12.716 4.627,-2.704 9.233,-5.397 13.9,-8.124 l 0,-11.911 c 3.954,-2.221 7.778,-3.931 12.002,-3.063 0.665,-0.664 1.113,-1.111 1.784,-1.781 l 0,-7.583 c 0.671,-0.67 1.119,-1.117 1.567,-1.564 3.774,-0.392 3.774,-0.392 6.259,1.389 l 0,16.94 10.577,0 c 0.82,0.819 1.417,1.415 2.006,2.003 -0.402,0.443 -0.803,0.885 -1.242,1.367 2.076,1.607 5.158,-0.844 7.202,2.194 0.78,-1.61 1.448,-2.987 2.115,-4.365 1.534,-2.347 4.115,-2.283 6.766,-2.378 5.534,-0.199 10.946,-1.778 16.578,-1.326 1.615,0.13 3.332,-1.004 4.964,-1.546 0.462,-1.446 0.934,-2.924 1.503,-4.71 l 5.043,0 c 0.077,-0.284 0.154,-0.568 0.23,-0.852 -1.98,-1.123 -3.96,-2.247 -6.502,-3.689 l 0,-14.296 c -3.226,3.783 -7.089,3.422 -10.309,5.016 -6.114,-3.101 -9.792,-7.764 -9.893,-15.209 6.304,0 12.188,-0.155 18.057,0.066 2.932,0.11 5.618,-0.586 8.336,-1.346 2.83,-0.791 5.624,-1.713 9.028,-2.761 0.143,4.731 -0.005,9.271 0.089,13.966 l 13.786,0 0,-16.7 c 2.433,0.758 4.243,1.323 5.97,1.861 1.878,2.311 1.673,4.951 1.806,7.601 0.118,2.368 1.247,4.747 1.062,7.051 -0.164,2.051 1.747,3.873 0.34,6.021 -0.281,0.429 0.444,2.11 1.104,2.458 4.134,2.175 7.476,5.935 12.758,5.844 9.48,-0.162 18.965,-0.046 28.357,-0.046 0.688,-0.687 1.285,-1.283 1.89,-1.887 l 0,-11.687 8.677,0 c 4.103,-3.36 7.722,-6.323 11.434,-9.363 2.119,0.629 4.355,0.932 6.234,1.917 5.551,2.909 11.438,5.131 16.667,8.752 2.305,1.597 5.556,1.832 8.706,2.785 l 0,5.384 8.609,0 c 2.561,2.613 5.176,5.283 7.452,7.606 2.628,-2.691 5.228,-5.354 7.204,-7.378 l 7.048,0 c 0.163,-0.78 0.284,-1.356 0.402,-1.933 3.681,-1.597 7.124,0.171 11.073,0.972 1.421,1.676 3.122,3.684 5.033,5.94 l 10.27,0 0,-7.37 7.673,0 0,-9.955 8.715,0 0,11.031 14.599,0 c 2.163,2.159 4.103,4.095 6.253,6.241 l 32.101,0 c 2.225,-1.505 3.834,-4.1 5.741,-6.21 1.866,-2.066 4.25,-3.384 6.064,-5.444 2.405,-2.731 4.055,-5.416 3.841,-9.219 -0.235,-4.178 -0.054,-8.38 -0.054,-12.807 l 6.975,0 c 2.75,2.463 5.646,5.057 8.184,7.332 7.031,-0.016 7.031,-0.016 15.676,-8.646 l 8.418,0 0,19.874 c 0,2.738 -0.127,5.485 0.062,8.211 0.076,1.103 0.841,2.159 1.283,3.215 l 20.217,0 0,-26.437 c 2.186,2.187 4.075,4.076 6.281,6.283 l 0,10.835 c 4.58,1.259 5.932,5.802 8.869,8.974 l 0,10.381 c 2.209,0.062 4.446,0.15 6.684,0.18 2.288,0.032 4.578,0.007 7.086,0.007 l 0,-23.727 13.249,0 c 1.55,-1.722 2.95,-3.278 4.335,-4.817 0.588,-4.902 1.194,-9.96 1.86,-15.511 3.284,0.219 6.883,-1.379 10.392,0.911 0.598,0.39 1.628,0.213 2.449,0.157 7.193,-0.492 13.762,2.364 20.507,4.042 4.361,1.085 8.777,2.08 13.09,3.475 5.981,1.935 12.154,3.433 18.282,4.665 5.064,1.018 10.095,2.37 15.228,3.206 3.134,0.51 6.532,0.308 9.417,1.582 3.315,1.463 6.654,-0.035 9.807,0.807 3.379,0.902 6.577,2.457 9.919,3.526 2.983,0.955 5.723,2.632 8.998,2.787 1.312,0.063 2.993,0.449 3.814,1.33 3.805,4.078 9.545,4.784 13.786,8.246 2.068,1.689 5.685,1.49 8.147,2.043 3.609,-1.988 4.301,-5.341 6.05,-7.955 1.692,-2.532 3.654,-4.884 5.479,-7.292 4.141,0.023 7.743,-2.594 11.609,-1.405 3.534,1.087 6.81,2.855 10.05,4.816 3.593,2.175 4.088,6.613 7.177,8.07 0.824,2.828 1.478,5.072 2.151,7.381 2.065,-0.317 2.875,-1.363 3.354,-3.186 1.093,-4.156 2.39,-8.266 3.775,-12.336 0.94,-2.763 2.17,-5.427 3.213,-7.993 3.733,-1.047 6.94,-1.885 10.452,-2.041 3.056,-0.137 6.269,-0.838 9.079,-2.393 3.614,-2 7.314,-3.807 10.854,-6.002 3.298,-2.045 5.065,-5.283 8.051,-7.47 1.923,-1.409 2.94,-4.146 4.151,-6.402 1.194,-2.226 2.118,-4.597 3.167,-6.902 0.47,-1.032 0.955,-2.059 1.447,-3.118 -0.381,-0.38 -0.829,-0.827 -1.695,-1.692 l -2.573,0 -1274.329,0 c -1.477,0 -2.984,-0.178 -4.422,0.058 C 1.873,-1.066 0.837,-0.367 0,0"
         inkscape:connector-curvature="0" />
    </g>
    <text
       xml:space="preserve"
       style="font-size:491.56771851px;font-style:normal;font-variant:normal;font-weight:normal;font-stretch:normal;line-height:125%;letter-spacing:0px;word-spacing:0px;fill:#ffffff;fill-opacity:1;stroke:none;display:inline;font-family:Zilla Slab Highlight;-inkscape-font-specification:Zilla Slab Highlight"
       x="180.30267"
       y="-366.31277"
       id="text5562"
       sodipodi:linespacing="125%"><tspan
         sodipodi:role="line"
         id="tspan5564"
         x="180.30267"
         y="-366.31277">CagliariClub</tspan></text>
    <text
       xml:space="preserve"
       style="font-size:393.25418091px;font-style:normal;font-variant:normal;font-weight:bold;font-stretch:normal;line-height:125%;letter-spacing:0px;word-spacing:0px;fill:#000000;fill-opacity:1;stroke:none;display:inline;font-family:Zilla Slab Highlight;-inkscape-font-specification:Zilla Slab Highlight Bold"
       x="179.12286"
       y="163.76335"
       id="text5566"
       sodipodi:linespacing="125%"><tspan
         sodipodi:role="line"
         id="tspan5568"
         x="179.12286"
         y="163.76335">moz://a</tspan></text>
  </g>
</svg>
