<?xml version="1.0" standalone="no"?>
<!DOCTYPE svg PUBLIC "-//W3C//DTD SVG 20010904//EN"
 "http://www.w3.org/TR/2001/REC-SVG-20010904/DTD/svg10.dtd">
<svg version="1.0" xmlns="http://www.w3.org/2000/svg"
 width="260.000000pt" height="260.000000pt" viewBox="0 0 260.000000 260.000000"
 preserveAspectRatio="xMidYMid meet">
<metadata>
Created by potrace 1.11, written by Peter Selinger 2001-2013
</metadata>
<g transform="translate(0.000000,260.000000) scale(0.100000,-0.100000)"
fill="#000000" stroke="none">
<path d="M840 2208 c-79 -22 -132 -89 -144 -182 -4 -27 -9 -52 -10 -55 -2 -3
-6 -29 -10 -56 -3 -28 -14 -102 -25 -165 -11 -63 -23 -135 -26 -160 -4 -25 -9
-52 -10 -60 -2 -8 -4 -21 -4 -27 -1 -10 -52 -13 -218 -13 -120 0 -223 -4 -230
-8 -20 -12 -32 -56 -26 -98 11 -96 86 -193 182 -238 46 -21 47 -21 981 -21
l935 0 52 24 c90 40 163 139 176 236 6 41 -6 85 -26 97 -7 4 -110 8 -229 8
-167 0 -218 3 -219 13 0 6 -2 19 -4 27 -1 8 -6 35 -9 60 -4 25 -9 56 -11 70
-3 14 -8 36 -10 50 -3 14 -7 43 -10 65 -2 22 -7 51 -10 65 -4 23 -15 86 -20
120 -18 130 -37 175 -87 213 -59 44 -106 50 -205 27 -124 -30 -140 -31 -298
-35 -141 -3 -266 11 -363 39 -40 11 -89 13 -122 4z m162 -142 c197 -43 432
-40 641 9 71 16 97 14 117 -9 11 -14 62 -294 56 -305 -5 -8 -1022 -8 -1030 0
-3 3 5 70 18 149 33 196 29 193 198 156z m844 -461 c2 -11 7 -41 10 -67 l6
-48 -562 0 -562 0 7 53 c7 45 12 76 14 85 1 1 245 1 543 0 532 -3 541 -3 544
-23z m471 -251 c5 -16 -44 -72 -81 -91 -28 -15 -112 -17 -936 -17 -824 0 -908
2 -936 17 -34 18 -84 71 -84 90 0 17 2032 17 2037 1z"/>
<path d="M580 929 c-39 -15 -88 -69 -96 -103 -10 -43 -7 -179 6 -225 22 -83
101 -164 191 -197 51 -18 238 -25 314 -11 125 22 223 113 247 228 l12 59 47 0
46 0 7 -41 c20 -127 123 -227 255 -248 83 -13 242 -6 304 14 76 24 146 86 177
157 18 41 24 75 26 146 4 132 -20 187 -93 218 -39 17 -506 20 -564 4 -39 -11
-79 -49 -100 -95 -13 -27 -19 -30 -59 -30 -40 1 -47 4 -59 30 -20 43 -51 76
-88 91 -39 17 -532 19 -573 3z m528 -123 c17 -10 15 -148 -2 -189 -17 -42 -66
-83 -114 -97 -20 -5 -83 -10 -138 -10 -92 0 -107 3 -155 28 -67 35 -90 73 -95
155 -5 85 2 115 29 119 45 6 464 1 475 -6z m873 -3 c16 -16 12 -158 -6 -193
-20 -39 -69 -78 -116 -90 -22 -6 -85 -10 -140 -9 -120 2 -184 27 -221 87 -31
50 -37 192 -8 207 27 14 477 12 491 -2z"/>
</g>
</svg>
