<?xml version="1.0" encoding="utf-8"?>
<!-- Generator: Adobe Illustrator 17.0.0, SVG Export Plug-In . SVG Version: 6.00 Build 0)  -->
<!DOCTYPE svg PUBLIC "-//W3C//DTD SVG 1.1//EN" "http://www.w3.org/Graphics/SVG/1.1/DTD/svg11.dtd">
<svg version="1.1" id="Layer_1" xmlns="http://www.w3.org/2000/svg" xmlns:xlink="http://www.w3.org/1999/xlink" x="0px" y="0px"
	 width="1976.477px" height="612px" viewBox="0 0 1976.477 612" enable-background="new 0 0 1976.477 612" xml:space="preserve">
<title>mozilla-clubs_wordmark</title>
<rect y="12.431" width="1833.027" height="329.225"/>
<rect y="373.101" width="792" height="226.467"/>
<path fill="#FFFFFF" d="M756.489,535.699c-1.354,0.414-2.76,0.634-4.176,0.654c-4.611,0-6.826-1.961-6.826-7.698v-43.064
	c0-22.621-18.155-33.623-39.324-33.623c-16.267,0-25.054,1.961-42.41,9.005l-3.849,22.803l22.621,2.433l3.195-11.147
	c4.722-2.226,9.933-3.213,15.141-2.869c16.049,0,16.267,12.091,16.267,22.186v3.304c-5.399-0.631-10.832-0.922-16.267-0.871
	c-22.621,0-46.114,5.701-46.114,30.101c0,20.661,16.267,28.358,30.537,28.358c13.491-0.084,25.795-7.73,31.844-19.789
	c1.307,12.091,8.569,19.789,21.786,19.789c6.217-0.069,12.324-1.652,17.792-4.611L756.489,535.699z M695.633,535.045
	c-5.665,0.759-10.872-3.217-11.632-8.882c-0.114-0.848-0.122-1.706-0.024-2.556c0-10.893,8.787-13.616,18.881-13.616
	c4.781,0.109,9.549,0.546,14.27,1.307C716.475,527.783,705.727,535.045,695.633,535.045L695.633,535.045z M657.579,401.895
	l-42.846,151.16h-27.886l42.846-151.16L657.579,401.895z M600.028,401.895l-42.846,151.16h-27.886l42.846-151.16L600.028,401.895z
	 M481.075,453.964h29.665v35.584h-29.665V453.964z M481.075,517.471h29.665v35.584h-29.665V517.471z M437.902,516.164l22.403,2.179
	l-6.136,34.713h-86.564l-2.868-14.924l54.465-62.599H388.23l-4.394,15.396l-20.443-2.215l3.631-34.713h87.145l2.215,14.924
	l-55.155,62.744h32.062L437.902,516.164z M295.929,452.004c-35.584,0-53.158,23.928-53.158,52.94
	c0,31.626,21.096,50.29,51.633,50.29c31.626,0,54.465-20.007,54.465-51.633C348.869,475.932,331.513,452.004,295.929,452.004z
	 M295.275,533.52C279.88,533.52,272,520.34,272,503.201c0-18.663,9.005-29.448,23.493-29.448c13.398,0,24.146,9.005,24.146,29.048
	c-0.109,18.845-9.659,30.682-24.364,30.682V533.52z M217.244,531.668h13.181V553.2h-41.612v-55.954
	c0-17.138-5.701-23.711-16.921-23.711c-13.616,0-19.099,9.659-19.099,23.493v34.64h13.181V553.2h-41.43v-55.954
	c0-17.138-5.701-23.711-16.921-23.711c-13.616,0-19.099,9.659-19.099,23.493v34.64h18.881V553.2h-60.42v-21.532h13.181v-56.172
	H46.986v-21.532h41.539v14.924c5.991-10.914,17.663-17.475,30.101-16.921c14.27,0,27.451,6.826,32.28,21.314
	c5.088-13.282,18.067-21.851,32.28-21.314c17.792,0,34.059,10.893,34.059,34.277L217.244,531.668z"/>
<text transform="matrix(1 0 0 1 65.2885 239.2685)" fill="#FFFFFF" font-family="'ZillaSlabRegular'" font-size="236.7335">your club’s name</text>
<rect y="735.504" fill="#FFFFFF" width="1833.027" height="329.225"/>
<rect y="1096.174" width="792" height="226.467"/>
<path fill="#FFFFFF" d="M756.489,1258.771c-1.354,0.414-2.76,0.634-4.176,0.654c-4.611,0-6.826-1.961-6.826-7.698v-43.064
	c0-22.621-18.155-33.623-39.324-33.623c-16.267,0-25.054,1.961-42.41,9.005l-3.849,22.803l22.621,2.433l3.195-11.147
	c4.722-2.226,9.933-3.213,15.141-2.869c16.049,0,16.267,12.091,16.267,22.186v3.304c-5.399-0.631-10.832-0.922-16.267-0.871
	c-22.621,0-46.114,5.701-46.114,30.101c0,20.661,16.267,28.358,30.537,28.358c13.491-0.084,25.795-7.73,31.844-19.789
	c1.307,12.091,8.569,19.789,21.786,19.789c6.217-0.069,12.324-1.652,17.792-4.611L756.489,1258.771z M695.633,1258.118
	c-5.665,0.759-10.872-3.217-11.632-8.882c-0.114-0.848-0.122-1.706-0.024-2.556c0-10.893,8.787-13.616,18.881-13.616
	c4.781,0.109,9.549,0.546,14.27,1.307C716.475,1250.856,705.727,1258.118,695.633,1258.118L695.633,1258.118z M657.579,1124.968
	l-42.846,151.16h-27.886l42.846-151.16H657.579z M600.028,1124.968l-42.846,151.16h-27.886l42.846-151.16H600.028z
	 M481.075,1177.037h29.665v35.584h-29.665V1177.037z M481.075,1240.543h29.665v35.584h-29.665V1240.543z M437.902,1239.236
	l22.403,2.179l-6.136,34.713h-86.564l-2.868-14.924l54.465-62.599H388.23l-4.394,15.396l-20.443-2.215l3.631-34.713h87.145
	l2.215,14.923l-55.155,62.744h32.062L437.902,1239.236z M295.929,1175.076c-35.584,0-53.158,23.928-53.158,52.94
	c0,31.626,21.096,50.29,51.633,50.29c31.626,0,54.465-20.007,54.465-51.633C348.869,1199.005,331.513,1175.076,295.929,1175.076z
	 M295.275,1256.593c-15.396,0-23.275-13.181-23.275-30.319c0-18.663,9.005-29.448,23.493-29.448
	c13.398,0,24.146,9.005,24.146,29.048c-0.109,18.845-9.659,30.682-24.364,30.682V1256.593z M217.244,1254.741h13.181v21.532h-41.612
	v-55.954c0-17.138-5.701-23.711-16.921-23.711c-13.616,0-19.099,9.659-19.099,23.493v34.64h13.181v21.532h-41.43v-55.954
	c0-17.138-5.701-23.711-16.921-23.711c-13.616,0-19.099,9.659-19.099,23.493v34.64h18.881v21.532h-60.42v-21.532h13.181v-56.172
	H46.986v-21.532h41.539v14.924c5.991-10.914,17.663-17.475,30.101-16.921c14.27,0,27.451,6.826,32.28,21.314
	c5.088-13.282,18.067-21.851,32.28-21.314c17.792,0,34.059,10.893,34.059,34.277L217.244,1254.741z"/>
<text transform="matrix(1 0 0 1 65.2885 962.3408)" fill="#231F20" font-family="'ZillaSlabRegular'" font-size="236.7335">your club’s name</text>
</svg>
